<svg xmlns="http://www.w3.org/2000/svg" viewBox="0 0 512 512">
  <path fill="#7952b3" d="M448 32H64C28.65 32 0 60.65 0 96v320c0 35.35 28.65 64 64 64h384c35.35 0 64-28.65 64-64V96c0-35.35-28.65-64-64-64z"/>
  <path fill="#fff" d="M432 416h-48V272H128v144H80V160h48c8.84 0 16-7.16 16-16v-32c0-8.84-7.16-16-16-16h-48V64h48c8.84 0 16-7.16 16-16v-32c0-8.84-7.16-16-16-16H80c-17.67 0-32 14.33-32 32v160h288V160H96c-8.84 0-16 7.16-16 16v32c0 8.84 7.16 16 16 16h48v96h288v-96h48c8.84 0 16-7.16 16-16v-32c0-8.84-7.16-16-16-16z"/>
</svg>
